<?xml version="1.0" encoding="UTF-8"?>
<svg id="_圖層_1" data-name="圖層 1" xmlns="http://www.w3.org/2000/svg" viewBox="0 0 1200 396.16">
  <defs>
    <style>
      .cls-1 {
        fill: #00c17f;
      }

      .cls-2 {
        fill: #fff;
      }
    </style>
  </defs>
  <g>
    <path class="cls-2" d="M317,101.19v-8.03c0-67.97,21.57-88.54,83.77-88.54s82.77,14.8,82.77,61.95l-30.1,.5c-.25-26.84-9.28-34.61-51.67-34.61s-53.43,13.54-53.43,63.46v2.51c0,51.67,11.29,63.96,53.68,63.96s51.92-6.77,51.67-43.39h-63.46v-25.08h93.56c-.25,8.28-.25,16.55-.25,23.33,0,58.19-19.56,72.49-82.27,72.49s-84.28-20.57-84.28-88.54Z"/>
    <path class="cls-2" d="M515.52,71.59c0-12.29,0-21.07-.25-31.35h28.09l.5,23.83c9.03-19.81,25.83-26.84,51.17-26.84,35.12,0,50.42,13.8,50.42,50.92,0,7.52-.25,17.81-.25,38.88v26.59c0,11.04,0,20.32,.25,32.61h-30.1c.25-11.29,.25-18.06,.25-32.61v-48.16c0-33.36-8.28-40.88-34.36-40.88s-35.87,7.52-35.87,46.15v43.14c0,13.29,0,21.57,.25,32.36h-30.35c.25-11.04,.25-19.81,.25-33.11V71.59Z"/>
    <path class="cls-2" d="M678.22,118.04v-7.52c0-55.68,19.06-72.24,69.48-72.24s69.73,16.55,69.73,72.24v7.52c0,55.68-19.06,72.24-69.73,72.24s-69.48-16.55-69.48-72.24Zm109.11-2.76v-2.01c0-39.13-9.53-48.16-39.63-48.16s-39.38,9.03-39.38,48.16v2.01c0,38.88,9.53,48.16,39.38,48.16s39.63-9.28,39.63-48.16Z"/>
    <path class="cls-2" d="M1039.64,.1V24.94h-30.35V.1h30.35Zm-30.1,73.99c0-14.05,0-24.83-.25-33.86h30.35c-.25,9.03-.25,19.81-.25,33.61v78.26c0,14.05,0,23.83,.25,34.11h-30.35c.25-10.03,.25-20.07,.25-33.86V74.1Z"/>
    <path class="cls-2" d="M1071.33,138.81l28.34-.75v3.51c0,18.56,7.02,23.58,38.38,23.58,24.83,0,31.6-5.27,31.6-18.56,0-10.53-4.77-16.3-41.89-22.32-44.15-7.02-54.18-16.3-54.18-43.39,0-31.35,15.05-43.64,58.69-43.64,51.67,0,62.46,12.79,62.46,46.9l-28.85,.75v-3.76c0-14.3-6.27-19.81-34.36-19.81-21.57,0-29.1,5.02-29.1,17.56,0,11.54,5.02,16.3,36.62,20.82,51.67,7.52,60.95,19.56,60.95,44.4,0,33.36-13.29,45.15-62.46,45.15-53.18,0-66.22-10.03-66.22-50.41Z"/>
    <path class="cls-2" d="M348.78,297.66c0-8.84,0-15.68-.17-22.02h60.89c29.19,0,38.7,9.67,38.7,30.19v.67c0,13.68-4.84,22.52-18.02,27.36,14.51,4.5,20.02,13.18,20.02,29.03v.67c0,21.69-10.18,30.53-38.53,30.53h-63.06c.17-6.17,.17-12.68,.17-21.35v-75.07Zm15.68-8.01v37.54h45.04c16.18,0,22.35-5.17,22.35-18.18v-.67c0-14.18-6.17-18.68-22.35-18.68h-45.04Zm0,51.55v38.87h47.21c16.01,0,22.19-3.84,22.19-19.68v-.33c0-14.35-6.17-18.85-23.35-18.85h-46.04Z"/>
    <path class="cls-2" d="M482.15,315.68c0-6.01,0-11.68-.17-18.35h15.35c0,6.17-.17,11.01-.17,18.02v35.7c0,25.52,5.51,31.19,25.02,31.19s27.19-5.67,27.19-36.53v-26.86c0-8.51,0-14.68-.17-21.52h15.35c-.17,7.01-.17,13.51-.17,21.52v54.38c0,7.84,0,14.18,.17,20.85h-13.85l-.33-15.51c-6.34,13.18-18.02,17.52-34.37,17.52-23.85,0-34.03-9.01-34.03-35.03,0-5.17,.17-12.01,.17-27.02v-18.35Z"/>
    <path class="cls-2" d="M611.58,271.64v15.51h-15.35v-15.51h15.35Zm-15.18,47.04c0-8.67,0-15.51-.17-21.35h15.35c-.17,5.84-.17,12.51-.17,21.19v53.55c0,9.01,0,15.35,.17,22.02h-15.35c.17-6.51,.17-13.01,.17-21.85v-53.55Z"/>
    <path class="cls-2" d="M689.92,347.92v-5c0-36.87,12.85-47.88,42.71-47.88,15.35,0,25.69,5.17,31.86,15.68,0-17.02-.17-34.86-.33-41.7h15.68c-.17,5.67-.17,12.51-.17,21.35v81.74c0,8.84,0,15.35,.17,21.69h-13.85l-.33-16.18c-6.01,12.34-16.85,18.18-34.03,18.18-28.86,0-41.71-11.01-41.71-47.88Zm74.73-1.83v-1.33c0-29.03-7.51-35.87-28.86-35.87-23.19,0-30.53,7.01-30.53,35.7v1.67c0,28.69,7.34,35.7,29.69,35.7s29.69-7.01,29.69-35.87Z"/>
    <path class="cls-2" d="M811.37,348.21v-5c0-36.87,12.68-47.88,44.37-47.88s43.21,11.01,43.21,47.88v8.51h-72.07c.83,23.85,8.51,30.53,30.19,30.53s27.02-6.17,27.02-19.69l14.85,.67c0,23.19-9.18,32.86-42.04,32.86s-45.54-11.01-45.54-47.88Zm15.51-9.84h56.05c-.67-23.19-7.17-29.53-27.19-29.53s-27.86,6.17-28.86,29.53Z"/>
    <path class="cls-2" d="M930.91,318.18c0-7.84,0-14.18-.17-20.85h13.85l.33,15.85c5.67-12.01,15.51-17.85,29.02-17.85,20.69,0,27.02,7.17,27.02,30.03,0,3.84,0,8.17-.17,11.34l-14.18,.33v-10.01c0-13.85-3.34-17.85-18.35-17.85s-22.35,5.67-22.35,35.87v27.52c0,8.51,0,14.68,.17,21.52h-15.35c.17-7.01,.17-13.51,.17-21.52v-54.38Z"/>
    <path class="cls-2" d="M1016.82,362.55l14.18-.5v2.5c0,14.35,5.34,18.02,29.02,18.02,19.02,0,24.36-3.84,24.36-14.18,0-8.01-3.67-12.51-30.36-16.85-29.03-4.67-35.7-10.84-35.7-28.03,0-20.52,9.84-28.19,37.37-28.19,33.2,0,40.71,8.34,40.71,31.03l-14.51,.5v-2.84c0-10.84-4.84-15.18-26.86-15.18-16.51,0-22.35,4-22.35,13.51,0,8.51,3.67,12.35,26.02,15.68,34.86,5.17,41.04,13.35,41.04,29.03,0,21.52-8.51,29.03-40.2,29.03-34.36,0-42.71-6.67-42.71-33.53Z"/>
    <path class="cls-2" d="M849.11,138.81l28.34-.75v3.51c0,18.56,7.02,23.58,38.38,23.58,24.83,0,31.6-5.27,31.6-18.56,0-10.53-4.77-16.3-41.89-22.32-44.15-7.02-54.18-16.3-54.18-43.39,0-31.35,15.05-43.64,58.69-43.64,51.67,0,62.46,12.79,62.46,46.9l-28.85,.75v-3.76c0-14.3-6.27-19.81-34.36-19.81-21.57,0-29.1,5.02-29.1,17.56,0,11.54,5.02,16.3,36.62,20.82,51.67,7.52,60.95,19.56,60.95,44.4,0,33.36-13.29,45.15-62.46,45.15-53.18,0-66.22-10.03-66.22-50.41Z"/>
    <path class="cls-2" d="M643.23,290.65c0-8.67,0-15.52-.17-21.35h15.35c-.17,5.84-.17,12.51-.17,21.19v81.57c0,9.01,0,15.35,.17,22.02h-15.35c.17-6.51,.17-13.01,.17-21.85v-81.57Z"/>
  </g>
  <circle class="cls-1" cx="23.87" cy="87.43" r="23.77"/>
  <circle class="cls-1" cx="229.85" cy="87.43" r="23.77"/>
  <path class="cls-2" d="M0,142.6H253.56v253.56h-.28C113.49,396.16,0,282.67,0,142.88v-.28H0Z"/>
  <path class="cls-2" d="M.1,.04H253.62L126.88,126.78S-2.51-2.57,.1,.04Z"/>
</svg>