<?xml version="1.0" encoding="UTF-8"?>
<svg id="_圖層_1" data-name="圖層 1" xmlns="http://www.w3.org/2000/svg" viewBox="0 0 1200 135.91">
  <defs>
    <style>
      .cls-1 {
        fill: #00c17f;
      }

      .cls-2 {
        fill: #fff;
      }
    </style>
  </defs>
  <circle class="cls-1" cx="78.54" cy="29.83" r="8.13"/>
  <circle class="cls-1" cx="8.25" cy="29.83" r="8.13"/>
  <path class="cls-2" d="M0,48.78H86.74v86.74h-.1C38.83,135.52,0,96.7,0,48.88v-.1H0Z"/>
  <path class="cls-2" d="M.03,.01H86.76L43.4,43.37S-.86-.88,.03,.01Z"/>
  <path class="cls-2" d="M130.07,72.41v-5.72c0-48.44,15.37-63.1,59.71-63.1s58.99,10.55,58.99,44.15l-21.45,.36c-.18-19.13-6.61-24.67-36.83-24.67s-38.08,9.65-38.08,45.23v1.79c0,36.82,8.04,45.58,38.26,45.58s37-4.83,36.82-30.93h-45.23v-17.88h66.68c-.18,5.9-.18,11.8-.18,16.62,0,41.47-13.94,51.66-58.63,51.66s-60.06-14.66-60.06-63.1Z"/>
  <path class="cls-2" d="M271.26,51.32c0-8.76,0-15.02-.18-22.35h20.02l.36,16.98c6.44-14.12,18.41-19.13,36.47-19.13,25.03,0,35.93,9.83,35.93,36.29,0,5.36-.18,12.69-.18,27.71v18.95c0,7.87,0,14.48,.18,23.24h-21.45c.18-8.04,.18-12.87,.18-23.24v-34.32c0-23.78-5.9-29.14-24.49-29.14s-25.56,5.36-25.56,32.89v30.75c0,9.47,0,15.37,.18,23.06h-21.63c.18-7.87,.18-14.12,.18-23.6V51.32Z"/>
  <path class="cls-2" d="M386.14,84.42v-5.36c0-39.69,13.59-51.48,49.52-51.48s49.7,11.8,49.7,51.48v5.36c0,39.69-13.59,51.48-49.7,51.48s-49.52-11.8-49.52-51.48Zm77.76-1.97v-1.43c0-27.89-6.79-34.32-28.24-34.32s-28.07,6.44-28.07,34.32v1.43c0,27.71,6.79,34.32,28.07,34.32s28.24-6.61,28.24-34.32Z"/>
  <path class="cls-2" d="M507.04,99.23l20.2-.54v2.5c0,13.23,5.01,16.8,27.35,16.8,17.7,0,22.52-3.75,22.52-13.23,0-7.51-3.4-11.62-29.85-15.91-31.46-5.01-38.61-11.62-38.61-30.93,0-22.35,10.73-31.1,41.83-31.1,36.82,0,44.51,9.12,44.51,33.43l-20.56,.54v-2.68c0-10.19-4.47-14.12-24.49-14.12-15.37,0-20.74,3.58-20.74,12.51,0,8.22,3.57,11.62,26.1,14.84,36.83,5.36,43.44,13.94,43.44,31.64,0,23.78-9.47,32.18-44.51,32.18-37.9,0-47.19-7.15-47.19-35.93Z"/>
  <path class="cls-2" d="M642.34,.37V18.07h-21.63V.37h21.63Zm-21.45,52.73c0-10.01,0-17.7-.18-24.13h21.63c-.18,6.44-.18,14.12-.18,23.95v55.77c0,10.01,0,16.98,.18,24.31h-21.63c.18-7.15,.18-14.3,.18-24.13V53.11Z"/>
  <path class="cls-2" d="M664.28,99.23l20.2-.54v2.5c0,13.23,5.01,16.8,27.35,16.8,17.7,0,22.52-3.75,22.52-13.23,0-7.51-3.4-11.62-29.85-15.91-31.46-5.01-38.61-11.62-38.61-30.93,0-22.35,10.73-31.1,41.83-31.1,36.82,0,44.51,9.12,44.51,33.43l-20.56,.54v-2.68c0-10.19-4.47-14.12-24.49-14.12-15.37,0-20.74,3.58-20.74,12.51,0,8.22,3.57,11.62,26.1,14.84,36.83,5.36,43.44,13.94,43.44,31.64,0,23.78-9.47,32.18-44.51,32.18-37.9,0-47.19-7.15-47.19-35.93Z"/>
  <path class="cls-2" d="M799.4,83.3c0-4.73,0-8.38-.09-11.77h32.55c15.6,0,20.69,5.17,20.69,16.14v.36c0,7.31-2.59,12.04-9.63,14.62,7.76,2.41,10.7,7.04,10.7,15.52v.36c0,11.59-5.44,16.32-20.6,16.32h-33.71c.09-3.3,.09-6.78,.09-11.41v-40.13Zm8.38-4.28v20.06h24.08c8.65,0,11.95-2.76,11.95-9.72v-.36c0-7.58-3.3-9.99-11.95-9.99h-24.08Zm0,27.55v20.78h25.23c8.56,0,11.86-2.05,11.86-10.52v-.18c0-7.67-3.3-10.08-12.48-10.08h-24.61Z"/>
  <path class="cls-2" d="M870.06,92.93c0-3.21,0-6.24-.09-9.81h8.2c0,3.3-.09,5.89-.09,9.63v19.08c0,13.64,2.94,16.67,13.38,16.67s14.53-3.03,14.53-19.53v-14.36c0-4.55,0-7.85-.09-11.5h8.2c-.09,3.75-.09,7.22-.09,11.5v29.07c0,4.19,0,7.58,.09,11.15h-7.4l-.18-8.29c-3.39,7.04-9.63,9.36-18.37,9.36-12.75,0-18.19-4.82-18.19-18.73,0-2.76,.09-6.42,.09-14.45v-9.81Z"/>
  <path class="cls-2" d="M938.76,69.39v8.29h-8.2v-8.29h8.2Zm-8.11,25.15c0-4.64,0-8.29-.09-11.41h8.2c-.09,3.12-.09,6.69-.09,11.32v28.62c0,4.82,0,8.2,.09,11.77h-8.2c.09-3.48,.09-6.95,.09-11.68v-28.62Z"/>
  <path class="cls-2" d="M955.15,79.55c0-4.64,0-8.29-.09-11.41h8.2c-.09,3.12-.09,6.69-.09,11.32v43.6c0,4.82,0,8.2,.09,11.77h-8.2c.09-3.48,.09-6.95,.09-11.68v-43.6Z"/>
  <path class="cls-2" d="M979.73,110.32v-2.68c0-19.71,6.87-25.59,22.83-25.59,8.2,0,13.73,2.76,17.03,8.38,0-9.1-.09-18.64-.18-22.29h8.38c-.09,3.03-.09,6.69-.09,11.41v43.69c0,4.73,0,8.2,.09,11.59h-7.4l-.18-8.65c-3.21,6.6-9.01,9.72-18.19,9.72-15.43,0-22.29-5.89-22.29-25.59Zm39.95-.98v-.71c0-15.52-4.01-19.17-15.43-19.17-12.39,0-16.32,3.75-16.32,19.08v.89c0,15.34,3.92,19.08,15.87,19.08s15.87-3.75,15.87-19.17Z"/>
  <path class="cls-2" d="M1044.26,110.32v-2.68c0-19.71,6.78-25.59,23.72-25.59s23.09,5.89,23.09,25.59v4.55h-38.52c.45,12.75,4.55,16.32,16.14,16.32s14.45-3.3,14.45-10.52l7.94,.36c0,12.39-4.9,17.57-22.47,17.57s-24.34-5.89-24.34-25.59Zm8.29-5.26h29.96c-.36-12.39-3.83-15.78-14.53-15.78s-14.89,3.3-15.43,15.78Z"/>
  <path class="cls-2" d="M1107.3,94.27c0-4.19,0-7.58-.09-11.15h7.4l.18,8.47c3.03-6.42,8.29-9.54,15.51-9.54,11.06,0,14.45,3.83,14.45,16.05,0,2.05,0,4.37-.09,6.06l-7.58,.18v-5.35c0-7.4-1.78-9.54-9.81-9.54s-11.95,3.03-11.95,19.17v14.71c0,4.55,0,7.85,.09,11.5h-8.2c.09-3.75,.09-7.22,.09-11.5v-29.07Z"/>
  <path class="cls-2" d="M1155.68,117.98l7.58-.27v1.34c0,7.67,2.85,9.63,15.51,9.63,10.17,0,13.02-2.05,13.02-7.58,0-4.28-1.96-6.69-16.23-9.01-15.52-2.5-19.08-5.8-19.08-14.98,0-10.97,5.26-15.07,19.97-15.07,17.75,0,21.76,4.46,21.76,16.59l-7.76,.27v-1.52c0-5.8-2.59-8.11-14.36-8.11-8.83,0-11.95,2.14-11.95,7.22,0,4.55,1.96,6.6,13.91,8.38,18.64,2.76,21.93,7.13,21.93,15.52,0,11.5-4.55,15.52-21.49,15.52-18.37,0-22.83-3.57-22.83-17.92Z"/>
</svg>